<svg width="1584" height="400" viewBox="0 0 1584 400" fill="none" xmlns="http://www.w3.org/2000/svg">
<rect width="1584" height="400" fill="#7E91BC"/>
<path d="M278.518 61.2711L174.433 135.192L167.329 124.487L256.343 61.2711H278.518Z" fill="#FEFEFE"/>
<path d="M312.715 61.2711V71.9753L166.285 175.967L159.181 165.263L305.614 61.2711H312.715Z" fill="#FEFEFE"/>
<path d="M312.715 92.7802V108.528L199.633 188.838H177.456L312.715 92.7802Z" fill="#FEFEFE"/>
<path d="M209 200C269.199 200 318 197.654 318 194.761C318 191.867 269.199 189.521 209 189.521C148.801 189.521 100 191.867 100 194.761C100 197.654 148.801 200 209 200Z" fill="#1E2126"/>
<path opacity="0.1" d="M261.188 199.317C275.174 199.317 286.511 197.685 286.511 195.672C286.511 193.659 275.174 192.027 261.188 192.027C247.202 192.027 235.865 193.659 235.865 195.672C235.865 197.685 247.202 199.317 261.188 199.317Z" fill="black"/>
<path opacity="0.1" d="M172.226 199.317C189.86 199.317 204.156 197.379 204.156 194.988C204.156 192.598 189.86 190.66 172.226 190.66C154.592 190.66 140.297 192.598 140.297 194.988C140.297 197.379 154.592 199.317 172.226 199.317Z" fill="black"/>
<path d="M210.482 74.7534L216.075 73.4308L220.23 74.7534L188.588 191.8L184.114 194.445L188.588 134.599L210.482 74.7534Z" fill="black"/>
<path opacity="0.1" d="M210.41 74.8709L216.003 73.5483L220.158 74.8709L188.517 191.918L184.042 194.563L188.517 134.717L210.41 74.8709Z" fill="black"/>
<path d="M131.617 38.4656L184.673 194.362L216.635 73.5134L131.617 38.4656Z" fill="#FEFEFE"/>
<path d="M147.756 136.541C156.702 144.913 155.015 153.338 149.08 160.125C148.942 160.282 148.804 160.437 148.664 160.59C148.382 160.899 148.096 161.197 147.806 161.485C142.03 167.218 134.585 168.904 126.265 161.118C117.654 153.061 116.743 131.508 116.686 129.902C116.686 129.902 116.687 129.901 116.687 129.9C116.684 129.839 116.684 129.808 116.684 129.808C116.684 129.808 138.81 128.169 147.756 136.541Z" fill="#FEFEFE"/>
<path d="M147.321 159.291L145.18 149.116L147.977 159.926L148.664 160.59C148.382 160.899 148.096 161.197 147.806 161.485L139.279 152.626L139.206 152.564L139.2 152.544L138.395 151.706L127.692 149.904L137.773 151.1L137.962 151.257L131.52 144.563L121.16 141.899L130.373 143.403L116.686 129.902L116.641 129.857L116.687 129.9L127.688 140.31L126.67 132.359L128.625 141.218L134.591 146.986L131.925 137.952L135.469 147.833L138.787 151.04L135.261 138.253L139.943 152.16L147.321 159.291Z" fill="#1E2126"/>
<path d="M171.566 120.726C164.162 120.726 156.924 122.998 150.768 127.253C144.612 131.508 139.814 137.556 136.981 144.632C134.148 151.708 133.406 159.495 134.851 167.007C136.295 174.519 139.86 181.419 145.096 186.835C150.331 192.251 157.001 195.939 164.263 197.433C171.524 198.928 179.051 198.161 185.891 195.23C192.731 192.299 198.578 187.335 202.691 180.967C206.805 174.598 209 167.111 209 159.452C209 149.181 205.056 139.331 198.036 132.069C191.015 124.806 181.494 120.726 171.566 120.726ZM172.226 168.906C168.031 168.906 164.629 164.622 164.629 159.338C164.629 154.054 168.031 149.771 172.226 149.771C176.422 149.771 179.823 154.054 179.823 159.338C179.823 164.622 176.422 168.906 172.226 168.906Z" fill="#1E2126"/>
<path opacity="0.1" d="M172.006 168.906C167.81 168.906 164.409 164.622 164.409 159.338C164.409 154.054 167.81 149.771 172.006 149.771C176.069 149.771 179.388 153.788 179.593 158.842C179.598 158.704 179.603 158.566 179.603 158.427C179.603 155.886 178.797 153.416 177.31 151.394C175.822 149.373 173.735 147.911 171.368 147.234C169.001 146.557 166.485 146.701 164.205 147.645C161.925 148.588 160.006 150.279 158.744 152.458C157.481 154.638 156.945 157.185 157.215 159.71C157.486 162.235 158.55 164.599 160.243 166.439C161.936 168.279 164.166 169.493 166.591 169.897C169.016 170.301 171.501 169.871 173.667 168.673C173.126 168.827 172.567 168.905 172.006 168.906Z" fill="black"/>
<path d="M132.656 24C129.463 24 126.343 24.9793 123.688 26.814C121.034 28.6487 118.965 31.2565 117.744 34.3075C116.522 37.3586 116.202 40.7159 116.825 43.9548C117.448 47.1938 118.985 50.169 121.243 52.5041C123.5 54.8393 126.376 56.4296 129.507 57.0738C132.638 57.7181 135.883 57.3875 138.832 56.1237C141.782 54.8599 144.303 52.7198 146.076 49.9739C147.85 47.228 148.796 43.9998 148.796 40.6973C148.796 38.5046 148.379 36.3334 147.568 34.3075C146.757 32.2817 145.568 30.441 144.069 28.8905C142.57 27.34 140.791 26.1101 138.832 25.271C136.874 24.4319 134.775 24 132.656 24ZM132.941 44.7735C131.132 44.7735 129.665 42.9265 129.665 40.6482C129.665 38.3699 131.132 36.523 132.941 36.523C134.75 36.523 136.216 38.3699 136.216 40.6482C136.216 42.9265 134.75 44.7735 132.941 44.7735Z" fill="#1E2126"/>
<path opacity="0.1" d="M132.846 44.7735C131.037 44.7735 129.57 42.9266 129.57 40.6483C129.57 38.37 131.037 36.523 132.846 36.523C134.598 36.523 136.028 38.2554 136.117 40.4342C136.119 40.3747 136.121 40.3154 136.121 40.2554C136.121 39.16 135.774 38.0949 135.132 37.2232C134.491 36.3515 133.591 35.7214 132.571 35.4294C131.55 35.1374 130.465 35.1996 129.482 35.6064C128.499 36.0133 127.672 36.7423 127.127 37.6819C126.583 38.6215 126.352 39.7198 126.468 40.8086C126.585 41.8973 127.044 42.9164 127.774 43.7098C128.504 44.5031 129.465 45.0269 130.511 45.201C131.556 45.375 132.628 45.1897 133.562 44.6734C133.328 44.7395 133.088 44.7732 132.846 44.7735Z" fill="black"/>
<path d="M250.178 174.714H247.756V195.9C247.756 195.9 263.39 201.139 278.584 195.9V174.714H250.178Z" fill="#3F3D56"/>
<path d="M262.95 177.22C271.341 177.22 278.143 176.149 278.143 174.828C278.143 173.507 271.341 172.437 262.95 172.437C254.558 172.437 247.756 173.507 247.756 174.828C247.756 176.149 254.558 177.22 262.95 177.22Z" fill="#3F3D56"/>
<path opacity="0.1" d="M262.95 177.22C271.341 177.22 278.143 176.149 278.143 174.828C278.143 173.507 271.341 172.437 262.95 172.437C254.558 172.437 247.756 173.507 247.756 174.828C247.756 176.149 254.558 177.22 262.95 177.22Z" fill="black"/>
<path d="M280.611 149.403C276.779 164.061 263.65 173.138 263.65 173.138C263.65 173.138 256.736 158.452 260.569 143.794C264.402 129.136 277.53 120.059 277.53 120.059C277.53 120.059 284.444 134.745 280.611 149.403Z" fill="#1E2126"/>
<path d="M245.742 149.403C249.575 164.061 262.704 173.138 262.704 173.138C262.704 173.138 269.618 158.452 265.785 143.794C261.952 129.136 248.824 120.059 248.824 120.059C248.824 120.059 241.91 134.745 245.742 149.403Z" fill="#FEFEFE"/>
<path d="M251.375 146.253C261.892 156.845 263.177 173.126 263.177 173.126C263.177 173.126 247.409 172.236 236.892 161.644C226.374 151.052 225.089 134.771 225.089 134.771C225.089 134.771 240.857 135.661 251.375 146.253Z" fill="#1E2126"/>
<path d="M274.979 146.253C264.462 156.845 263.177 173.126 263.177 173.126C263.177 173.126 278.945 172.236 289.462 161.644C299.98 151.052 301.265 134.771 301.265 134.771C301.265 134.771 285.497 135.661 274.979 146.253Z" fill="#3F3D56"/>
<path d="M263.17 125.054C265.845 125.054 268.014 122.811 268.014 120.043C268.014 117.275 265.845 115.031 263.17 115.031C260.494 115.031 258.325 117.275 258.325 120.043C258.325 122.811 260.494 125.054 263.17 125.054Z" fill="black"/>
<path d="M172.983 80.9423C172.983 80.9423 182.308 81.2045 183.848 81.7841C185.388 82.3638 186.076 86.5086 186.076 86.5086L178.836 88.8627L173.421 88.5454L169.346 88.8433L171.621 82.6779L172.983 80.9423Z" fill="#2F2E41"/>
<path d="M173.689 78.0316C173.73 78.0324 173.774 78.0332 173.821 78.0343C174.1 78.0403 174.498 78.051 174.971 78.0697C175.919 78.1073 177.168 78.1771 178.381 78.3061C179.599 78.4355 180.761 78.6227 181.542 78.8892C181.939 79.0245 182.2 79.1684 182.331 79.3069C182.392 79.3718 182.414 79.4239 182.419 79.464C182.424 79.5027 182.418 79.5591 182.369 79.6412C182.056 80.1723 181.895 81.0533 181.815 82.0275C181.734 83.0153 181.734 84.1462 181.768 85.2113C181.803 86.2775 181.873 87.283 181.934 88.0216C181.965 88.391 181.993 88.694 182.014 88.9048C182.018 88.9399 182.021 88.9724 182.024 89.0022L178.564 89.6174C178.512 89.5724 178.44 89.5086 178.349 89.4281C178.155 89.2566 177.88 89.0095 177.554 88.7075C176.902 88.103 176.047 87.2804 175.237 86.4051C174.423 85.5273 173.664 84.6072 173.193 83.8069C172.957 83.4058 172.802 83.0496 172.743 82.7536C172.684 82.459 172.725 82.2569 172.834 82.1182C173.561 81.191 173.754 80.0826 173.772 79.2246C173.78 78.7936 173.745 78.4192 173.707 78.1522C173.701 78.1092 173.695 78.0689 173.689 78.0316Z" fill="#FFB8B8" stroke="black" stroke-width="0.5"/>
<path opacity="0.1" d="M173.756 78.7097C173.756 78.7097 174.369 81.161 173.008 82.8966C171.646 84.6323 178.861 90.8171 178.861 90.8171L182.667 90.1403C182.667 90.1403 181.828 82.6084 182.955 80.7011C184.082 78.7939 173.756 78.7097 173.756 78.7097Z" fill="#FFB8B8"/>
<path d="M198.699 149.447L190.301 160.968L196.032 164.429L203.92 151.079L198.699 149.447Z" fill="#FFB8B8"/>
<path d="M192.808 161.162C192.808 161.162 189.715 157.445 189.853 158.274C189.991 159.103 187.653 166.133 189.828 166.813C192.004 167.493 210.659 169.296 210.916 167.117C211.173 164.938 205.351 163.413 205.351 163.413C205.351 163.413 201.892 159.974 201.125 160.324C200.358 160.673 192.808 161.162 192.808 161.162Z" fill="#2F2E41"/>
<path d="M196.815 160.45L203.523 172.272L208.587 169.238L201.823 159.559L196.815 160.45Z" fill="#FFB8B8"/>
<path d="M207.404 132.323L205.413 135.238C205.413 135.238 195.923 148.874 196.93 149.975C197.938 151.075 202.136 155.236 204.271 154.43C206.405 153.624 213.99 139.687 213.99 139.687L212.011 131.504L207.404 132.323Z" fill="#1E2126"/>
<path d="M166.521 129.565C166.521 129.565 168.646 133.667 174.033 135.056C179.42 136.446 185.048 139.285 185.249 139.25C185.449 139.214 186.016 138.9 186.153 139.729C186.291 140.558 187.768 142.002 187.768 142.002C187.768 142.002 193.719 162.921 195.991 162.943C198.264 162.966 202.934 161.282 203.031 160.625C203.128 159.967 196.073 138.605 196.004 138.191L195.177 133.217C195.177 133.217 204.508 134.758 205.379 135.03C206.249 135.302 213.99 139.687 213.99 139.687C213.99 139.687 221.881 133.803 214.5 127.861C207.119 121.919 194.432 117.561 194.432 117.561L189.881 116.236L185.915 115.991L185.331 113.674L175.936 114.235L166.133 118.539L166.521 129.565Z" fill="#1E2126"/>
<path d="M185.987 75.0861C185.987 79.1369 182.815 82.4061 178.919 82.4061C175.024 82.4061 171.852 79.1369 171.852 75.0861C171.852 71.0352 175.024 67.766 178.919 67.766C182.815 67.766 185.987 71.0352 185.987 75.0861Z" fill="#FFB8B8" stroke="black" stroke-width="0.5"/>
<path d="M172.299 81.1705L173.179 81.014C173.179 81.014 174.769 87.3456 179.686 88.3916C179.686 88.3916 182.113 85.3845 182.009 84.8772C181.905 84.3698 183.931 81.6627 185.007 83.1781C186.084 84.6936 184.745 111.389 185.649 111.868C186.554 112.347 188.495 112.856 186.933 114.627C185.371 116.398 179.167 118.781 177.793 117.959C176.418 117.137 173.611 110.168 172.396 107.824C171.182 105.479 169.238 97.5037 169.238 97.5037C169.238 97.5037 166.755 88.7705 168.283 86.792C169.811 84.8135 172.299 81.1705 172.299 81.1705Z" fill="#868493"/>
<path d="M179.302 114.035C179.139 115.895 178.859 117.741 178.464 119.563C178.105 121.046 177.687 121.941 177.211 121.903C175.994 121.809 175.441 123.655 175.156 125.783C174.851 128.041 174.851 130.617 174.684 131.528C174.462 132.73 173.047 133.648 170.217 133.379C168.532 133.181 166.879 132.761 165.296 132.13C161.476 130.694 161.589 119.042 162.228 110.396C162.619 105.097 163.207 100.924 163.207 100.924C163.207 100.924 162.047 97.3437 161.675 94.8898C161.602 94.4421 161.565 93.9887 161.565 93.5345C161.621 91.3908 165.404 85.5981 167.69 81.9898C169.979 78.3814 173.101 81.0286 173.101 81.0286L172.014 84.4208C172.014 84.4208 173.698 87.1086 173.71 89.6667C173.723 92.2249 177.741 94.071 179.184 95.3094C180.091 96.0875 180.069 106.475 179.302 114.035Z" fill="#3F3D56"/>
<path d="M182.48 82.2407C182.48 82.2407 182.744 82.5632 183.951 82.4059C185.399 82.2172 187.39 82.7355 187.853 84.1658C188.701 86.7887 191.093 97.4583 191.093 97.4583C191.093 97.4583 192.088 109.656 192.536 112.351C192.983 115.045 192.761 117.431 193.202 118.846C193.644 120.261 188.845 116.207 187.077 116.735C185.308 117.263 184.172 110.424 184.394 108.037C184.616 105.651 184.804 103.057 184.191 100.606C183.577 98.1546 184.665 91.6669 184.624 90.1806C184.583 88.6943 180.724 84.9483 182.48 82.2407Z" fill="#2F2E41"/>
<path d="M187.658 120.152C187.658 120.152 195.406 124.525 196.147 130.749C196.889 136.973 185.784 124.723 185.784 124.723L187.658 120.152Z" fill="#FFB8B8"/>
<path d="M192.08 115.739C192.08 115.739 194.455 128.118 198.153 127.461C201.851 126.803 196.087 115.026 196.087 115.026L192.08 115.739Z" fill="#FFB8B8"/>
<path d="M204.746 169.708C204.746 169.708 202.853 171.965 202.383 171.621C201.914 171.278 200.834 175.951 201.807 176.845C202.781 177.738 206.531 179.205 206.571 180.691C206.612 182.178 216.669 181.883 217.029 180.325C217.389 178.768 215.768 175.216 214.628 174.565C213.489 173.914 209.276 167.923 209.276 167.923C209.276 167.923 205.977 168.422 204.746 169.708Z" fill="#2F2E41"/>
<path opacity="0.1" d="M186.423 127.723C184.627 126.411 179.61 126.086 175.156 125.783C173.201 125.654 171.355 125.526 169.937 125.32C168.57 125.125 167.341 123.833 166.25 121.908C164.596 118.991 163.258 114.617 162.228 110.396C162.619 105.097 163.207 100.924 163.207 100.924C163.207 100.924 162.047 97.3437 161.675 94.8898C161.937 94.5131 162.274 94.1991 162.664 93.9693C167.388 91.8714 171.899 112.517 172.471 115.757C172.481 115.81 172.489 115.861 172.496 115.904C172.774 117.572 175.775 118.999 178.464 119.563C180.121 119.912 181.662 119.935 182.373 119.482C184.238 118.297 189.975 123.039 190.41 123.174C190.846 123.312 189.004 129.613 186.423 127.723Z" fill="black"/>
<path d="M162.664 92.6983C162.664 92.6983 159.231 94.3757 160.739 102.215C162.248 110.055 165.288 123.383 169.936 124.05C174.584 124.717 183.84 124.565 186.422 126.453C189.005 128.34 190.845 122.039 190.41 121.903C189.975 121.767 184.238 117.026 182.372 118.212C180.506 119.397 172.944 117.328 172.496 114.633C172.049 111.939 167.466 90.5644 162.664 92.6983Z" fill="#1E2126"/>
<path d="M187.408 88.9388L191.182 97.9977C191.182 97.9977 191.562 97.8016 192.003 99.2167C192.445 100.632 192.651 101.875 193.424 102.805C194.198 103.734 197.638 116.991 197.741 117.613C197.844 118.234 192.99 120.378 191.905 118.65C190.82 116.923 187.408 88.9388 187.408 88.9388Z" fill="#1E2126"/>
<path d="M174.756 74.9807C175.036 74.9032 175.078 74.518 175.087 74.2179C175.137 72.6107 176.073 70.9615 177.56 70.4937C178.131 70.3318 178.728 70.2977 179.313 70.3939C180.147 70.5088 180.952 70.7868 181.686 71.213C182.073 71.4383 182.453 71.7096 182.893 71.7784C183.183 71.8238 184.439 72.2017 184.728 72.2549C185.363 72.3718 185.954 72.9598 186.563 72.741C187.146 72.5317 187.275 71.7505 187.289 71.1122C187.322 69.6578 186.254 67.6448 185.314 66.5629C184.601 65.7418 183.527 65.3628 182.477 65.1657C181.25 64.9618 180.007 64.8836 178.766 64.9322C177.085 64.9632 175.358 65.0974 173.843 65.8495C172.328 66.6017 171.055 68.0987 170.982 69.8357C170.967 70.1975 171.003 70.5609 170.974 70.9218C170.902 71.8022 170.45 72.5974 170.238 73.4532C170.087 74.0812 170.064 74.7351 170.172 75.3727C170.28 76.0103 170.515 76.6174 170.864 77.155C171.426 78.0112 172.31 78.7855 172.277 79.82L173.497 78.5132C173.679 78.3693 173.808 78.1652 173.862 77.9349C173.916 77.7045 173.892 77.462 173.795 77.2476L173.363 75.506C173.252 75.1951 173.239 74.8559 173.326 74.5368C173.788 73.3541 174.288 75.1098 174.756 74.9807Z" fill="#1E2126"/>
</svg>
