<svg width="598" height="113" viewBox="0 0 598 113" fill="none" xmlns="http://www.w3.org/2000/svg">
<path d="M4.56543 2.50977H40.6577V21.6582H33.981V87.166C33.0571 90.5674 31.7134 93.6958 29.9497 96.5513C28.186 99.3647 26.4434 101.926 24.7217 104.236C23.042 106.545 20.6694 109.464 17.604 112.991L0.0302734 112.046C2.50781 108.267 4.43945 105.139 5.8252 102.661C7.25293 100.226 8.68066 97.5381 10.1084 94.5986C11.5361 91.6172 12.6489 88.4468 13.4468 85.0874V21.6582H4.56543V2.50977ZM92.938 99.7007C88.6128 99.7007 84.4766 99.1128 80.5293 97.937C76.582 96.7612 72.8867 95.1025 69.4434 92.9609C66.042 90.8193 62.9346 88.2578 60.1211 85.2764C57.3496 82.2529 54.9771 78.9146 53.0034 75.2612C51.0298 71.5659 49.4971 67.6187 48.4053 63.4194C47.3135 59.2202 46.7676 54.832 46.7676 50.2549C46.7676 45.6777 47.3135 41.2896 48.4053 37.0903C49.4971 32.8491 51.0298 28.9019 53.0034 25.2485C54.9771 21.5532 57.3496 18.2148 60.1211 15.2334C62.9346 12.21 66.042 9.62744 69.4434 7.48584C72.8867 5.34424 76.582 3.68555 80.5293 2.50977C84.4766 1.33398 88.6128 0.746094 92.938 0.746094C97.2632 0.746094 101.399 1.33398 105.347 2.50977C109.336 3.68555 113.031 5.34424 116.433 7.48584C119.876 9.62744 122.983 12.21 125.755 15.2334C128.568 18.2148 130.962 21.5532 132.936 25.2485C134.951 28.9019 136.505 32.8491 137.597 37.0903C138.688 41.2896 139.234 45.6777 139.234 50.2549C139.234 54.79 138.688 59.1782 137.597 63.4194C136.505 67.6187 134.951 71.5659 132.936 75.2612C130.962 78.9146 128.568 82.2529 125.755 85.2764C122.983 88.2578 119.876 90.8193 116.433 92.9609C113.031 95.1025 109.336 96.7612 105.347 97.937C101.399 99.1128 97.2632 99.7007 92.938 99.7007ZM92.938 79.9224C96.5913 79.9224 99.9297 79.1455 102.953 77.5918C106.019 75.9961 108.643 73.8545 110.827 71.167C113.01 68.4375 114.69 65.2881 115.866 61.7188C117.083 58.1074 117.692 54.2861 117.692 50.2549C117.692 46.1816 117.083 42.3394 115.866 38.728C114.648 35.1167 112.926 31.9673 110.701 29.2798C108.517 26.5503 105.914 24.4087 102.89 22.855C99.8667 21.2593 96.5493 20.4614 92.938 20.4614C89.3267 20.4614 86.0093 21.2593 82.9858 22.855C79.9624 24.4087 77.3589 26.5503 75.1753 29.2798C72.9917 31.9673 71.27 35.1167 70.0103 38.728C68.7925 42.3394 68.1836 46.1816 68.1836 50.2549C68.1836 54.2861 68.7925 58.1074 70.0103 61.7188C71.27 65.2881 72.9917 68.4375 75.1753 71.167C77.3589 73.8545 79.9624 75.9961 82.9858 77.5918C86.0093 79.1455 89.3267 79.9224 92.938 79.9224ZM151.769 80.7412H161.532V19.8315H151.769V2.38379L198.317 2.50977C202.643 2.50977 206.59 3.28662 210.159 4.84033C213.771 6.35205 216.878 8.43066 219.481 11.0762C222.085 13.6797 224.101 16.7451 225.528 20.2725C226.998 23.7578 227.733 27.4741 227.733 31.4214C227.733 36.0405 226.914 39.8618 225.276 42.8853C223.681 45.9087 221.392 48.3442 218.411 50.1919C221.56 52.2075 224.038 54.7061 225.843 57.6875C227.691 60.627 228.615 64.2173 228.615 68.4585C228.615 72.7837 227.859 76.752 226.347 80.3633C224.877 83.9746 222.841 87.103 220.237 89.7485C217.676 92.3521 214.631 94.3887 211.104 95.8584C207.577 97.2861 203.776 98 199.703 98H151.769V80.7412ZM182.444 58.5063V80.7412H198.317C199.535 80.7412 200.669 80.4263 201.719 79.7964C202.811 79.1665 203.734 78.3477 204.49 77.3398C205.288 76.29 205.918 75.0933 206.38 73.7495C206.842 72.3638 207.073 70.936 207.073 69.4663C207.073 67.9126 206.842 66.4849 206.38 65.1831C205.918 63.8394 205.288 62.6846 204.49 61.7188C203.692 60.7109 202.748 59.9341 201.656 59.3882C200.606 58.8003 199.493 58.5063 198.317 58.5063H182.444ZM182.444 19.8315V41.2476H197.436C198.611 41.2476 199.724 40.9536 200.774 40.3657C201.824 39.7778 202.727 39.001 203.482 38.0352C204.28 37.0273 204.91 35.9146 205.372 34.6968C205.834 33.437 206.065 32.1353 206.065 30.7915C206.065 29.4897 205.834 28.188 205.372 26.8862C204.91 25.5845 204.28 24.4087 203.482 23.3589C202.727 22.3091 201.824 21.4692 200.774 20.8394C199.724 20.1675 198.611 19.8315 197.436 19.8315H182.444ZM239.071 80.7412H248.834V19.8315H239.071V2.38379L285.619 2.50977C289.944 2.50977 293.892 3.28662 297.461 4.84033C301.072 6.35205 304.18 8.43066 306.783 11.0762C309.387 13.6797 311.402 16.7451 312.83 20.2725C314.3 23.7578 315.035 27.4741 315.035 31.4214C315.035 36.0405 314.216 39.8618 312.578 42.8853C310.982 45.9087 308.694 48.3442 305.712 50.1919C308.862 52.2075 311.339 54.7061 313.145 57.6875C314.993 60.627 315.917 64.2173 315.917 68.4585C315.917 72.7837 315.161 76.752 313.649 80.3633C312.179 83.9746 310.143 87.103 307.539 89.7485C304.978 92.3521 301.933 94.3887 298.406 95.8584C294.878 97.2861 291.078 98 287.005 98H239.071V80.7412ZM269.746 58.5063V80.7412H285.619C286.837 80.7412 287.971 80.4263 289.021 79.7964C290.112 79.1665 291.036 78.3477 291.792 77.3398C292.59 76.29 293.22 75.0933 293.682 73.7495C294.144 72.3638 294.375 70.936 294.375 69.4663C294.375 67.9126 294.144 66.4849 293.682 65.1831C293.22 63.8394 292.59 62.6846 291.792 61.7188C290.994 60.7109 290.049 59.9341 288.958 59.3882C287.908 58.8003 286.795 58.5063 285.619 58.5063H269.746ZM269.746 19.8315V41.2476H284.737C285.913 41.2476 287.026 40.9536 288.076 40.3657C289.125 39.7778 290.028 39.001 290.784 38.0352C291.582 37.0273 292.212 35.9146 292.674 34.6968C293.136 33.437 293.367 32.1353 293.367 30.7915C293.367 29.4897 293.136 28.188 292.674 26.8862C292.212 25.5845 291.582 24.4087 290.784 23.3589C290.028 22.3091 289.125 21.4692 288.076 20.8394C287.026 20.1675 285.913 19.8315 284.737 19.8315H269.746ZM326.373 2.50977H402.336V35.0747H381.802V21.5322H357.3V40.3657H376.259V58.6323H357.3V80.7412H381.802V63.7974H402.336V98H326.373V80.7412H336.388V21.5322H326.373V2.50977ZM413.296 2.50977H463.813C468.726 2.50977 473.114 3.24463 476.978 4.71436C480.841 6.18408 484.095 8.15771 486.741 10.6353C489.386 13.0708 491.402 15.9263 492.788 19.2017C494.215 22.4351 494.929 25.8154 494.929 29.3428C494.929 32.5762 494.572 35.4106 493.858 37.8462C493.187 40.2817 492.179 42.4443 490.835 44.334C489.533 46.2236 487.917 47.9033 485.985 49.373C484.053 50.8008 481.849 52.1025 479.371 53.2783C481.513 54.3701 483.402 56.0498 485.04 58.3174C486.678 60.543 487.917 63.4404 488.756 67.0098L491.969 79.4185H499.842L499.968 98H472.253L468.474 75.3242C468.096 72.6367 467.508 70.3271 466.71 68.3955C465.955 66.4219 464.926 64.8262 463.624 63.6084C462.322 62.3486 460.727 61.4248 458.837 60.8369C456.989 60.249 454.785 59.9551 452.223 59.9551H444.098V80.7412H452.853V98H413.296V80.7412H423.186V19.8315H413.296V2.50977ZM444.098 19.8315V42.9482H456.632C459.026 42.9482 461.167 42.7383 463.057 42.3184C464.989 41.8564 466.626 41.1636 467.97 40.2397C469.356 39.2739 470.406 38.0771 471.12 36.6494C471.875 35.2217 472.253 33.521 472.253 31.5474C472.253 27.8521 470.931 24.9756 468.285 22.918C465.64 20.8604 461.755 19.8315 456.632 19.8315H444.098ZM578.893 98V81.623C576.289 86.2002 573.749 89.5596 571.271 91.7012C568.793 93.8428 565.98 95.5645 562.831 96.8662C559.723 98.168 555.545 98.7979 550.296 98.7559C547.692 98.7139 545.089 98.4199 542.485 97.874C539.882 97.2861 537.362 96.4883 534.927 95.4805C532.491 94.4307 530.098 93.1919 527.746 91.7642C525.437 90.2944 523.337 88.6147 521.447 86.7251C516.786 82.022 513.154 76.584 510.55 70.4111C507.989 64.1963 506.708 57.4355 506.708 50.1289C506.708 45.6357 507.254 41.2896 508.346 37.0903C509.438 32.8911 510.97 28.9648 512.944 25.3115C514.917 21.6582 517.29 18.3408 520.062 15.3594C522.875 12.3359 525.982 9.75342 529.384 7.61182C532.827 5.47021 536.522 3.81152 540.47 2.63574C544.417 1.45996 548.553 0.87207 552.878 0.87207C557.833 0.87207 562.138 1.54395 565.791 2.8877C569.444 4.18945 573.371 6.646 577.57 10.2573H591.679V31.5474H572.216C570.284 28.5659 568.458 26.4033 566.736 25.0596C565.056 23.7158 563.208 22.603 561.193 21.7212C559.219 20.8394 556.448 20.3984 552.878 20.3984C549.351 20.3984 546.076 21.1963 543.052 22.792C540.029 24.3877 537.404 26.5503 535.179 29.2798C532.995 31.9673 531.273 35.1587 530.014 38.854C528.754 42.5073 528.124 46.2656 528.124 50.1289C528.124 53.9502 528.691 57.5825 529.825 61.0259C530.958 64.4692 532.68 67.5767 534.99 70.3481C537.299 73.0776 539.987 75.1772 543.052 76.647C546.118 78.1167 549.393 78.8516 552.878 78.8516C557.33 78.8516 561.214 77.5498 564.531 74.9463C567.849 72.3428 570.242 68.7944 571.712 64.3013H553.508V47.0425H597.726V98H578.893Z" fill="#FEFEFE"/>
</svg>
