<svg width="1584" height="396" viewBox="0 0 1584 396" fill="none" xmlns="http://www.w3.org/2000/svg">
<g clip-path="url(#clip0_308_223)">
<rect width="1584" height="396" fill="white"/>
<path opacity="0.1" d="M862.5 195C881.554 195 897 193.433 897 191.5C897 189.567 881.554 188 862.5 188C843.446 188 828 189.567 828 191.5C828 193.433 843.446 195 862.5 195Z" fill="black"/>
<rect y="-4" width="1584" height="400" fill="#7E91BC"/>
<path d="M278.518 57.2711L174.433 131.192L167.329 120.487L256.343 57.2711H278.518Z" fill="#FEFEFE"/>
<path d="M312.715 57.2711V67.9753L166.285 171.967L159.182 161.263L305.614 57.2711H312.715Z" fill="#FEFEFE"/>
<path d="M312.715 88.7802V104.528L199.633 184.838H177.456L312.715 88.7802Z" fill="#FEFEFE"/>
<path d="M209 196C269.199 196 318 193.654 318 190.761C318 187.867 269.199 185.521 209 185.521C148.801 185.521 100 187.867 100 190.761C100 193.654 148.801 196 209 196Z" fill="#1E2126"/>
<path opacity="0.1" d="M261.188 195.317C275.174 195.317 286.511 193.685 286.511 191.672C286.511 189.659 275.174 188.027 261.188 188.027C247.202 188.027 235.865 189.659 235.865 191.672C235.865 193.685 247.202 195.317 261.188 195.317Z" fill="black"/>
<path opacity="0.1" d="M172.226 195.317C189.86 195.317 204.156 193.379 204.156 190.988C204.156 188.598 189.86 186.66 172.226 186.66C154.592 186.66 140.297 188.598 140.297 190.988C140.297 193.379 154.592 195.317 172.226 195.317Z" fill="black"/>
<path d="M210.482 70.7534L216.075 69.4308L220.23 70.7534L188.588 187.8L184.114 190.445L188.588 130.599L210.482 70.7534Z" fill="black"/>
<path opacity="0.1" d="M210.41 70.8709L216.003 69.5483L220.158 70.8709L188.516 187.918L184.042 190.563L188.516 130.717L210.41 70.8709Z" fill="black"/>
<path d="M131.617 34.4656L184.673 190.362L216.635 69.5134L131.617 34.4656Z" fill="#FEFEFE"/>
<path d="M147.756 132.541C156.702 140.913 155.015 149.338 149.08 156.125C148.942 156.282 148.803 156.437 148.664 156.59C148.382 156.899 148.096 157.197 147.806 157.485C142.03 163.218 134.585 164.904 126.265 157.118C117.654 149.061 116.743 127.508 116.686 125.902C116.686 125.902 116.687 125.901 116.687 125.9C116.684 125.839 116.684 125.808 116.684 125.808C116.684 125.808 138.81 124.169 147.756 132.541Z" fill="#FEFEFE"/>
<path d="M147.321 155.291L145.18 145.116L147.977 155.926L148.664 156.59C148.382 156.899 148.096 157.197 147.806 157.485L139.279 148.626L139.206 148.564L139.2 148.544L138.395 147.706L127.692 145.904L137.773 147.1L137.962 147.256L131.52 140.563L121.16 137.899L130.373 139.403L116.686 125.902L116.641 125.857L116.687 125.9L127.688 136.31L126.67 128.359L128.625 137.218L134.591 142.986L131.925 133.952L135.469 143.833L138.787 147.04L135.261 134.253L139.943 148.16L147.321 155.291Z" fill="#1E2126"/>
<path d="M171.566 116.726C164.162 116.726 156.924 118.998 150.768 123.253C144.612 127.508 139.814 133.556 136.981 140.632C134.148 147.708 133.406 155.495 134.851 163.007C136.295 170.519 139.86 177.419 145.096 182.835C150.331 188.251 157.001 191.939 164.263 193.433C171.524 194.928 179.051 194.161 185.891 191.23C192.731 188.299 198.578 183.335 202.691 176.967C206.805 170.598 209 163.111 209 155.452C209 145.181 205.056 135.331 198.036 128.069C191.015 120.806 181.494 116.726 171.566 116.726V116.726ZM172.226 164.906C168.031 164.906 164.629 160.622 164.629 155.338C164.629 150.054 168.031 145.771 172.226 145.771C176.422 145.771 179.823 150.054 179.823 155.338C179.823 160.622 176.422 164.906 172.226 164.906V164.906Z" fill="#1E2126"/>
<path opacity="0.1" d="M172.006 164.906C167.81 164.906 164.409 160.622 164.409 155.338C164.409 150.054 167.81 145.771 172.006 145.771C176.069 145.771 179.388 149.788 179.593 154.842C179.598 154.704 179.603 154.566 179.603 154.427C179.603 151.886 178.797 149.416 177.31 147.394C175.822 145.373 173.735 143.911 171.368 143.234C169.001 142.557 166.485 142.701 164.205 143.645C161.925 144.588 160.006 146.279 158.744 148.458C157.482 150.638 156.945 153.185 157.215 155.71C157.486 158.235 158.55 160.599 160.243 162.439C161.936 164.279 164.166 165.493 166.591 165.897C169.016 166.301 171.501 165.871 173.667 164.673C173.126 164.827 172.567 164.905 172.006 164.906V164.906Z" fill="black"/>
<path d="M132.656 20C129.463 20 126.343 20.9793 123.688 22.814C121.034 24.6487 118.965 27.2565 117.744 30.3075C116.522 33.3586 116.202 36.7159 116.825 39.9548C117.448 43.1938 118.985 46.169 121.243 48.5041C123.5 50.8393 126.376 52.4296 129.507 53.0738C132.638 53.7181 135.883 53.3875 138.832 52.1237C141.782 50.8599 144.303 48.7198 146.076 45.9739C147.85 43.228 148.796 39.9998 148.796 36.6973C148.796 34.5046 148.379 32.3334 147.568 30.3075C146.757 28.2817 145.568 26.441 144.069 24.8905C142.57 23.34 140.791 22.1101 138.832 21.271C136.874 20.4319 134.775 20 132.656 20ZM132.941 40.7735C131.132 40.7735 129.665 38.9265 129.665 36.6482C129.665 34.3699 131.132 32.523 132.941 32.523C134.75 32.523 136.216 34.3699 136.216 36.6482C136.216 38.9265 134.75 40.7735 132.941 40.7735Z" fill="#1E2126"/>
<path opacity="0.1" d="M132.846 40.7735C131.037 40.7735 129.57 38.9266 129.57 36.6483C129.57 34.37 131.037 32.523 132.846 32.523C134.598 32.523 136.028 34.2554 136.117 36.4342C136.119 36.3747 136.121 36.3154 136.121 36.2554C136.121 35.16 135.774 34.0949 135.132 33.2232C134.491 32.3515 133.591 31.7214 132.571 31.4294C131.55 31.1374 130.465 31.1996 129.482 31.6064C128.499 32.0133 127.672 32.7423 127.127 33.6819C126.583 34.6215 126.351 35.7198 126.468 36.8086C126.585 37.8973 127.044 38.9164 127.774 39.7098C128.504 40.5031 129.465 41.0269 130.511 41.201C131.556 41.375 132.628 41.1897 133.562 40.6734C133.328 40.7395 133.088 40.7732 132.846 40.7735V40.7735Z" fill="black"/>
<path d="M250.178 170.714H247.756V191.9C247.756 191.9 263.39 197.139 278.584 191.9V170.714H250.178Z" fill="#3F3D56"/>
<path d="M262.95 173.22C271.341 173.22 278.143 172.149 278.143 170.828C278.143 169.507 271.341 168.437 262.95 168.437C254.558 168.437 247.756 169.507 247.756 170.828C247.756 172.149 254.558 173.22 262.95 173.22Z" fill="#3F3D56"/>
<path opacity="0.1" d="M262.95 173.22C271.341 173.22 278.143 172.149 278.143 170.828C278.143 169.507 271.341 168.437 262.95 168.437C254.558 168.437 247.756 169.507 247.756 170.828C247.756 172.149 254.558 173.22 262.95 173.22Z" fill="black"/>
<path d="M280.612 145.403C276.779 160.061 263.65 169.138 263.65 169.138C263.65 169.138 256.736 154.452 260.569 139.794C264.402 125.136 277.53 116.059 277.53 116.059C277.53 116.059 284.444 130.745 280.612 145.403Z" fill="#1E2126"/>
<path d="M245.742 145.403C249.575 160.061 262.704 169.138 262.704 169.138C262.704 169.138 269.618 154.452 265.785 139.794C261.952 125.136 248.824 116.059 248.824 116.059C248.824 116.059 241.91 130.745 245.742 145.403Z" fill="#FEFEFE"/>
<path d="M251.375 142.253C261.892 152.845 263.177 169.126 263.177 169.126C263.177 169.126 247.409 168.236 236.892 157.644C226.374 147.052 225.089 130.771 225.089 130.771C225.089 130.771 240.857 131.661 251.375 142.253Z" fill="#1E2126"/>
<path d="M274.979 142.253C264.462 152.845 263.177 169.126 263.177 169.126C263.177 169.126 278.945 168.236 289.462 157.644C299.98 147.052 301.265 130.771 301.265 130.771C301.265 130.771 285.497 131.661 274.979 142.253Z" fill="#3F3D56"/>
<path d="M263.17 121.054C265.845 121.054 268.014 118.811 268.014 116.043C268.014 113.275 265.845 111.031 263.17 111.031C260.494 111.031 258.325 113.275 258.325 116.043C258.325 118.811 260.494 121.054 263.17 121.054Z" fill="black"/>
<path d="M172.983 76.9423C172.983 76.9423 182.308 77.2045 183.848 77.7841C185.388 78.3638 186.076 82.5086 186.076 82.5086L178.836 84.8627L173.421 84.5454L169.346 84.8433L171.621 78.6779L172.983 76.9423Z" fill="#2F2E41"/>
<path d="M173.689 74.0316C173.729 74.0324 173.774 74.0332 173.821 74.0343C174.1 74.0403 174.498 74.051 174.971 74.0697C175.919 74.1073 177.168 74.1771 178.381 74.3061C179.599 74.4355 180.76 74.6227 181.542 74.8892C181.939 75.0245 182.2 75.1684 182.331 75.3069C182.392 75.3718 182.414 75.4239 182.419 75.464C182.424 75.5027 182.418 75.5591 182.369 75.6412C182.056 76.1723 181.895 77.0533 181.815 78.0275C181.734 79.0153 181.734 80.1462 181.768 81.2113C181.803 82.2775 181.873 83.283 181.934 84.0216C181.965 84.391 181.993 84.694 182.014 84.9048C182.018 84.9399 182.021 84.9724 182.024 85.0022L178.564 85.6174C178.512 85.5724 178.44 85.5086 178.349 85.4281C178.155 85.2566 177.88 85.0095 177.554 84.7075C176.902 84.103 176.047 83.2804 175.236 82.4051C174.423 81.5273 173.664 80.6072 173.193 79.8069C172.957 79.4058 172.802 79.0496 172.743 78.7536C172.684 78.459 172.725 78.2569 172.834 78.1182C173.561 77.191 173.754 76.0826 173.772 75.2246C173.78 74.7936 173.745 74.4192 173.707 74.1522C173.701 74.1092 173.695 74.0689 173.689 74.0316Z" fill="#FFB8B8" stroke="black" stroke-width="0.5"/>
<path opacity="0.1" d="M173.756 74.7097C173.756 74.7097 174.369 77.161 173.007 78.8966C171.646 80.6323 178.861 86.8171 178.861 86.8171L182.667 86.1403C182.667 86.1403 181.828 78.6084 182.955 76.7011C184.082 74.7939 173.756 74.7097 173.756 74.7097Z" fill="#FFB8B8"/>
<path d="M198.699 145.447L190.301 156.968L196.032 160.429L203.92 147.079L198.699 145.447Z" fill="#FFB8B8"/>
<path d="M192.808 157.162C192.808 157.162 189.715 153.445 189.853 154.274C189.991 155.103 187.653 162.133 189.828 162.813C192.004 163.493 210.659 165.296 210.916 163.117C211.173 160.938 205.351 159.413 205.351 159.413C205.351 159.413 201.892 155.974 201.125 156.324C200.358 156.673 192.808 157.162 192.808 157.162Z" fill="#2F2E41"/>
<path d="M196.815 156.45L203.523 168.272L208.587 165.238L201.823 155.559L196.815 156.45Z" fill="#FFB8B8"/>
<path d="M207.404 128.323L205.413 131.238C205.413 131.238 195.923 144.874 196.93 145.975C197.938 147.075 202.136 151.236 204.271 150.43C206.405 149.624 213.99 135.687 213.99 135.687L212.011 127.504L207.404 128.323Z" fill="#1E2126"/>
<path d="M166.521 125.565C166.521 125.565 168.646 129.667 174.033 131.056C179.42 132.446 185.048 135.285 185.249 135.25C185.449 135.214 186.016 134.9 186.153 135.729C186.291 136.558 187.768 138.002 187.768 138.002C187.768 138.002 193.719 158.921 195.991 158.943C198.264 158.966 202.934 157.282 203.031 156.625C203.128 155.967 196.073 134.605 196.004 134.191L195.178 129.217C195.178 129.217 204.509 130.758 205.379 131.03C206.249 131.302 213.99 135.687 213.99 135.687C213.99 135.687 221.881 129.803 214.5 123.861C207.119 117.919 194.432 113.561 194.432 113.561L189.881 112.236L185.915 111.991L185.331 109.674L175.936 110.235L166.133 114.539L166.521 125.565Z" fill="#1E2126"/>
<path d="M185.987 71.0861C185.987 75.1369 182.815 78.4061 178.919 78.4061C175.024 78.4061 171.852 75.1369 171.852 71.0861C171.852 67.0352 175.024 63.766 178.919 63.766C182.815 63.766 185.987 67.0352 185.987 71.0861Z" fill="#FFB8B8" stroke="black" stroke-width="0.5"/>
<path d="M172.299 77.1705L173.179 77.014C173.179 77.014 174.769 83.3456 179.686 84.3916C179.686 84.3916 182.113 81.3845 182.009 80.8772C181.905 80.3698 183.931 77.6627 185.007 79.1781C186.084 80.6936 184.745 107.389 185.649 107.868C186.554 108.347 188.494 108.856 186.933 110.627C185.371 112.398 179.167 114.781 177.792 113.959C176.418 113.137 173.611 106.168 172.396 103.824C171.182 101.479 169.238 93.5037 169.238 93.5037C169.238 93.5037 166.755 84.7705 168.283 82.792C169.81 80.8135 172.299 77.1705 172.299 77.1705Z" fill="#868493"/>
<path d="M179.302 110.035C179.139 111.895 178.859 113.741 178.464 115.563C178.105 117.046 177.687 117.941 177.211 117.903C175.994 117.809 175.441 119.655 175.156 121.783C174.851 124.041 174.851 126.617 174.684 127.528C174.462 128.73 173.047 129.648 170.217 129.379C168.532 129.181 166.879 128.761 165.296 128.13C161.476 126.694 161.589 115.042 162.229 106.396C162.619 101.097 163.207 96.9241 163.207 96.9241C163.207 96.9241 162.047 93.3437 161.675 90.8898C161.602 90.4421 161.565 89.9887 161.565 89.5345C161.621 87.3908 165.404 81.5981 167.69 77.9898C169.979 74.3814 173.101 77.0286 173.101 77.0286L172.014 80.4208C172.014 80.4208 173.698 83.1086 173.71 85.6667C173.723 88.2249 177.741 90.071 179.184 91.3094C180.091 92.0875 180.069 102.475 179.302 110.035Z" fill="#3F3D56"/>
<path d="M182.48 78.2407C182.48 78.2407 182.744 78.5632 183.951 78.4059C185.399 78.2172 187.39 78.7355 187.853 80.1658C188.701 82.7887 191.093 93.4583 191.093 93.4583C191.093 93.4583 192.088 105.656 192.536 108.351C192.983 111.045 192.761 113.431 193.202 114.846C193.644 116.261 188.845 112.207 187.077 112.735C185.308 113.263 184.172 106.424 184.394 104.037C184.616 101.651 184.804 99.0571 184.191 96.6058C183.577 94.1546 184.665 87.6669 184.624 86.1806C184.583 84.6943 180.724 80.9483 182.48 78.2407Z" fill="#2F2E41"/>
<path d="M187.658 116.152C187.658 116.152 195.406 120.525 196.147 126.749C196.889 132.973 185.784 120.723 185.784 120.723L187.658 116.152Z" fill="#FFB8B8"/>
<path d="M192.08 111.739C192.08 111.739 194.455 124.118 198.153 123.461C201.851 122.803 196.087 111.026 196.087 111.026L192.08 111.739Z" fill="#FFB8B8"/>
<path d="M204.747 165.708C204.747 165.708 202.853 167.965 202.383 167.621C201.914 167.278 200.834 171.951 201.807 172.845C202.781 173.738 206.531 175.205 206.571 176.691C206.612 178.178 216.669 177.883 217.029 176.325C217.389 174.768 215.768 171.216 214.628 170.565C213.489 169.914 209.276 163.923 209.276 163.923C209.276 163.923 205.977 164.422 204.747 165.708Z" fill="#2F2E41"/>
<path opacity="0.1" d="M186.423 123.723C184.627 122.411 179.61 122.086 175.156 121.783C173.201 121.654 171.355 121.526 169.937 121.32C168.57 121.125 167.341 119.833 166.25 117.908C164.596 114.991 163.258 110.617 162.228 106.396C162.619 101.097 163.207 96.9241 163.207 96.9241C163.207 96.9241 162.047 93.3437 161.675 90.8898C161.937 90.5131 162.274 90.1991 162.664 89.9693C167.388 87.8714 171.899 108.517 172.471 111.757C172.481 111.81 172.489 111.861 172.496 111.904C172.774 113.572 175.775 114.999 178.464 115.563C180.121 115.912 181.662 115.935 182.373 115.482C184.238 114.297 189.975 119.039 190.41 119.174C190.846 119.312 189.004 125.613 186.423 123.723Z" fill="black"/>
<path d="M162.664 88.6983C162.664 88.6983 159.231 90.3757 160.739 98.2152C162.248 106.055 165.288 119.383 169.936 120.05C174.584 120.717 183.84 120.565 186.422 122.453C189.005 124.34 190.845 118.039 190.41 117.903C189.975 117.767 184.238 113.026 182.372 114.212C180.506 115.397 172.944 113.328 172.496 110.633C172.049 107.939 167.466 86.5644 162.664 88.6983Z" fill="#1E2126"/>
<path d="M187.408 84.9388L191.182 93.9977C191.182 93.9977 191.562 93.8016 192.003 95.2167C192.445 96.6318 192.651 97.8752 193.425 98.8045C194.198 99.7339 197.638 112.991 197.741 113.613C197.844 114.234 192.99 116.378 191.905 114.65C190.82 112.923 187.408 84.9388 187.408 84.9388Z" fill="#1E2126"/>
<path d="M174.756 70.9807C175.036 70.9032 175.078 70.518 175.087 70.2179C175.137 68.6107 176.073 66.9615 177.56 66.4937C178.131 66.3318 178.728 66.2977 179.313 66.3939C180.147 66.5088 180.952 66.7868 181.686 67.213C182.073 67.4383 182.453 67.7096 182.893 67.7784C183.183 67.8238 184.439 68.2017 184.728 68.2549C185.363 68.3718 185.953 68.9598 186.563 68.741C187.146 68.5317 187.275 67.7505 187.289 67.1121C187.322 65.6578 186.254 63.6448 185.314 62.5629C184.601 61.7418 183.527 61.3628 182.477 61.1657C181.25 60.9618 180.007 60.8836 178.766 60.9322C177.085 60.9632 175.358 61.0974 173.843 61.8495C172.328 62.6017 171.055 64.0987 170.982 65.8357C170.967 66.1975 171.003 66.5609 170.974 66.9218C170.902 67.8022 170.45 68.5974 170.238 69.4532C170.087 70.0812 170.064 70.7351 170.172 71.3727C170.28 72.0103 170.515 72.6174 170.864 73.155C171.426 74.0112 172.31 74.7855 172.277 75.82L173.497 74.5132C173.679 74.3693 173.808 74.1652 173.862 73.9349C173.916 73.7045 173.892 73.462 173.794 73.2476L173.363 71.506C173.252 71.1951 173.239 70.8559 173.326 70.5368C173.788 69.3541 174.288 71.1098 174.756 70.9807Z" fill="#1E2126"/>
<path d="M1493.53 68V78.7042L1347.1 182.696L1340 171.992L1486.43 68H1493.53Z" fill="#FEFEFE"/>
<path d="M1449 196.479C1509.2 196.479 1558 194.133 1558 191.239C1558 188.346 1509.2 186 1449 186C1388.8 186 1340 188.346 1340 191.239C1340 194.133 1388.8 196.479 1449 196.479Z" fill="#1E2126"/>
<path fill-rule="evenodd" clip-rule="evenodd" d="M368.845 69.3728C366.575 70.7409 364.345 71.4019 363.298 71.132C360.673 70.4554 360.432 60.8525 362.463 57.0668C364.494 53.281 374.935 51.6309 375.462 59.1317C375.644 61.735 374.551 64.0583 372.936 65.954L375.832 79.4516H367.42L368.845 69.3728Z" fill="#B28B67"/>
<path fill-rule="evenodd" clip-rule="evenodd" d="M365.785 52.9436C366.935 52.5931 368.603 52.4742 369.305 52.5546C368.906 51.598 368.748 50.5321 368.877 49.4944C369.002 48.486 369.453 47.6274 369.87 46.7277C370.062 46.3129 370.279 45.9005 370.604 45.5833C370.935 45.2601 371.353 45.0468 371.792 44.945C372.241 44.8409 372.711 44.8495 373.16 44.9441C373.359 44.9859 373.538 45.0769 373.733 45.1274C373.933 45.1793 374.03 45.0542 374.175 44.9285C374.525 44.6256 375.037 44.4761 375.479 44.4226C375.975 44.3625 376.49 44.4374 376.963 44.6005C377.424 44.7593 377.867 45.0171 378.2 45.3928C378.348 45.56 378.482 45.7503 378.57 45.9604C378.606 46.0466 378.612 46.0977 378.698 46.1293C378.777 46.1586 378.87 46.1594 378.953 46.1872C379.747 46.4562 380.426 47.0698 380.795 47.8577C381.011 48.3173 381.113 49.1266 381.085 50.0336C381.057 50.9407 380.238 53.3074 379.472 54.1707C378.789 54.9412 377.784 55.4497 376.814 55.6723C377.457 56.4082 377.886 57.3277 378.203 58.2629C378.547 59.2788 378.76 60.3344 378.839 61.4098C378.913 62.4317 378.92 63.5123 378.681 64.5123C378.457 65.4475 377.978 66.2147 377.177 66.7014C376.811 66.9243 376.417 67.0918 376.02 67.2449C375.629 67.3957 375.237 67.5424 374.828 67.6271C374.053 67.7872 373.16 67.7597 372.563 67.143C372.348 66.9206 372.112 66.6413 371.955 66.3697C371.898 66.272 371.864 66.2081 371.933 66.1126C372.015 65.9983 372.148 65.9107 372.253 65.8212C372.855 65.3112 373.227 64.6304 373.321 63.8212C373.417 63.0002 373.196 61.9406 372.398 61.5823C371.413 61.14 370.328 61.6477 369.452 62.1209C369.08 60.8073 368.315 59.6246 367.117 59.022C365.792 58.3554 364.271 58.2774 362.909 57.7055C362.554 57.5564 362.192 57.3872 361.931 57.0836C361.822 56.9566 361.693 56.792 361.65 56.6242C361.593 56.4037 361.735 56.2188 361.845 56.0469C362.427 55.1355 364.636 53.2941 365.785 52.9436Z" fill="#191847"/>
<path fill-rule="evenodd" clip-rule="evenodd" d="M378.285 107.491L365.446 151.734L359.408 184.951H353.346L359.397 107.491H378.285Z" fill="#997659"/>
<path fill-rule="evenodd" clip-rule="evenodd" d="M384.055 107.491C383.16 130.475 383.513 143.011 383.713 145.099C383.914 147.187 385.052 161.172 392.809 185.652H386.505C376.232 162.168 372.646 148.183 371.468 145.099C370.29 142.015 366.81 129.479 361.73 107.491H384.055Z" fill="#B28B67"/>
<path fill-rule="evenodd" clip-rule="evenodd" d="M378.561 107.491C375.221 122.715 369.445 147.016 361.233 180.395H352.368C351.713 146.135 354.498 123.586 359.322 107.491H378.561Z" fill="#AFB9C5"/>
<path fill-rule="evenodd" clip-rule="evenodd" d="M384.1 107.491C383.223 130.475 385.497 153.118 392.54 180.753H383.081C372.79 157.619 365.414 135.087 360.373 107.491H384.1Z" fill="#FEFEFE"/>
<path fill-rule="evenodd" clip-rule="evenodd" d="M393.707 190.209L393.437 185.85C393.397 185.21 392.769 184.767 392.131 184.829C389.209 185.114 385.707 183.9 385.707 183.9C382.221 186.369 377.462 187.734 374.708 188.365C373.535 188.633 372.779 189.829 373.107 190.987L373.185 191.26H385.707H393.012L393.707 190.209Z" fill="#191847"/>
<path fill-rule="evenodd" clip-rule="evenodd" d="M360.76 190.209L360.49 185.85C360.45 185.21 359.822 184.767 359.184 184.829C356.262 185.114 352.76 183.9 352.76 183.9C349.274 186.369 344.515 187.734 341.761 188.365C340.588 188.633 339.832 189.829 340.16 190.987L340.238 191.26H352.76H360.065L360.76 190.209Z" fill="#191847"/>
<path fill-rule="evenodd" clip-rule="evenodd" d="M348.371 80.0439L360.537 86.707L356.044 91.5289L347.205 83.4351C342.548 82.1517 340.418 81.2129 340.816 80.6186C341.151 80.1174 341.692 80.1348 342.19 80.1509C342.578 80.1634 342.94 80.175 343.159 79.9401C343.658 79.4035 342.705 77.5275 341.723 75.786C340.742 74.0444 341.791 74.196 342.391 74.4465C344.355 75.7757 346.348 77.6415 348.371 80.0439ZM336.139 89.3932L341.483 92.3288L341.179 97.6915C341.179 97.6915 337.718 95.1935 334.74 94.3633C330.944 93.3047 329.408 92.4963 327.552 90.1323C326.56 88.8675 325.717 86.3249 326.662 85.4968C327.024 85.1792 328.375 85.9296 329.753 86.6953C330.803 87.2788 331.869 87.8712 332.526 88.0065C333.41 88.1885 333.307 87.0425 333.224 86.1267C333.164 85.4695 333.116 84.9309 333.451 85.0866C335.015 85.1135 336.139 89.3932 336.139 89.3932Z" fill="#997659"/>
<path fill-rule="evenodd" clip-rule="evenodd" d="M366.462 85.2227C362.2 85.1777 356.518 84.2777 350.455 80.4291L348.074 85.7391C352.256 89.8896 358.137 93.2997 363.278 93.1553C367.331 93.0415 369.401 88.1402 366.462 85.2227Z" fill="#1E2126"/>
<path fill-rule="evenodd" clip-rule="evenodd" d="M377.954 121.602C382.005 121.074 385.728 120.588 387.934 121.023C390.409 112.985 388.353 107.924 386.456 103.252C385.313 100.436 384.227 97.7618 384.224 94.662C384.218 85.6352 376.97 71.7407 375.903 71.7407H375.597H367.146H366.178C365.743 77.3267 363.888 83.3748 362.02 89.4617C361.584 90.8832 361.147 92.3068 360.727 93.7271C353.66 95.3314 337.966 89.7469 337.966 89.7469C337.966 89.7469 334.004 97.9433 334.303 101.434C343.438 106.205 351.267 108.333 357.717 108.473C357.512 112.301 357.978 115.942 359.543 119.27C361.64 123.729 370.373 122.59 377.954 121.602Z" fill="#3F3D56"/>
<path opacity="0.1" d="M368.5 194C387.554 194 403 192.433 403 190.5C403 188.567 387.554 187 368.5 187C349.446 187 334 188.567 334 190.5C334 192.433 349.446 194 368.5 194Z" fill="black"/>
<path opacity="0.1" d="M1159.5 194C1192.36 194 1219 192.433 1219 190.5C1219 188.567 1192.36 187 1159.5 187C1126.64 187 1100 188.567 1100 190.5C1100 192.433 1126.64 194 1159.5 194Z" fill="black"/>
<path fill-rule="evenodd" clip-rule="evenodd" d="M1535.32 146.787C1534.29 143.341 1531.87 140.643 1529.35 138.172C1524.45 133.361 1521.81 130.387 1520.06 123.349C1519.04 119.21 1517.99 114.824 1514.73 111.822C1512.36 109.635 1508.28 107.798 1505.1 109.363C1500.22 112.277 1498.91 118.256 1499.4 123.611C1500.01 130.247 1503.11 134.338 1509.07 136.783C1512.42 138.159 1514.65 139.976 1516.47 143.141C1517.93 145.671 1518.78 148.841 1520.61 151.135C1523.35 154.565 1526.77 156.089 1531 155.52C1527.04 148.244 1522.42 140.899 1516.85 134.773C1516.33 134.157 1513.25 131.8 1513.87 130.75C1514.55 129.595 1517.71 133.936 1517.69 133.91C1519.31 135.769 1520.81 137.744 1522.28 139.739C1522.28 139.741 1522.27 139.742 1522.27 139.744C1523.78 141.79 1525.29 143.867 1526.76 145.97C1527.36 146.859 1527.94 147.76 1528.49 148.684C1529.31 150.039 1530.6 153.885 1531.94 154.718C1532.22 154.896 1532.49 154.995 1532.73 155.037C1533.64 156.527 1534.53 158.03 1535.37 159.55C1537.57 163.52 1539.46 167.713 1540.33 172.195C1540.58 173.504 1540.4 178.398 1541.29 179.343C1542.93 181.07 1542.45 177.743 1542.35 176.739C1541.54 168.424 1538.55 161.339 1534.22 154.348C1535.55 152.609 1535.74 148.183 1535.32 146.787Z" fill="#F2F2F2"/>
<path fill-rule="evenodd" clip-rule="evenodd" d="M1479.4 150.804C1481.12 148.776 1485.26 148.432 1487.79 148.568C1490.92 148.736 1494.14 149.498 1497.12 150.42C1502.03 151.938 1506.79 154.709 1511.12 157.391C1511.64 157.714 1518.06 161.574 1517.49 162.251C1516.92 162.922 1510.62 158.338 1509.22 157.547C1506.22 155.861 1503.48 153.866 1500.17 152.752C1496.75 151.599 1493.14 151.142 1489.54 151.174C1489.08 151.178 1487.57 150.856 1487.54 151.539C1487.51 152.207 1490 151.858 1490.44 151.862C1492.25 151.879 1494.08 152.05 1495.87 152.364C1499.22 152.953 1502.37 154.14 1505.24 155.96C1504.44 157.822 1502.52 158.68 1500.5 158.214C1498.76 157.811 1497.07 156.818 1495.36 156.531C1494.19 156.333 1493.01 156.451 1491.88 156.781C1488.87 157.654 1487.14 159.441 1483.84 158.198C1481.25 157.223 1476.93 153.721 1479.4 150.804Z" fill="#F2F2F2"/>
<path fill-rule="evenodd" clip-rule="evenodd" d="M1472 118.122C1468.17 117.844 1463.9 120.894 1462.06 124.069C1460.57 126.628 1460.82 129.989 1461.74 132.709C1462.36 134.529 1463.7 137.125 1465.94 137.15C1468.74 137.182 1468.87 133.759 1468.93 131.758C1469 129.098 1469.34 126.78 1471.46 124.967C1471.72 124.743 1471.99 124.534 1472.27 124.324C1472.51 124.138 1472.75 123.952 1472.99 123.757C1473.03 123.725 1473.06 123.694 1473.1 123.663C1473.85 123.04 1474.64 122.385 1474.73 121.358C1474.87 119.87 1474.02 119.602 1472.73 119.879C1472.68 119.888 1472.57 119.93 1472.42 119.988C1471.75 120.237 1470.34 120.766 1470.61 120.133C1470.71 119.894 1471.08 119.705 1471.54 119.564C1472.74 119.435 1474.17 119.285 1474.59 119.374C1479.03 120.338 1480.76 126.425 1481.22 130.292C1481.27 130.73 1481.31 131.17 1481.35 131.61H1482.16C1482.1 130.576 1482.03 129.544 1481.85 128.522C1481.2 124.692 1479.15 119.066 1474.66 118.444C1474.5 118.421 1473.89 118.417 1473.15 118.46C1472.8 118.266 1472.41 118.149 1472 118.122Z" fill="#F2F2F2"/>
<g opacity="0.7">
<path fill-rule="evenodd" clip-rule="evenodd" d="M1484.12 88.0591C1488.74 87.8193 1494.46 90.5169 1494.95 95.5405C1495.31 99.1906 1495.2 102.83 1495.75 106.475C1496.2 109.388 1497.14 112.184 1498.41 114.837C1499.64 117.389 1502.19 119.56 1502.86 122.286C1503.28 124.023 1503.04 126.466 1502.46 128.165C1501.75 130.23 1502.13 130.067 1503.54 131.8C1506.31 135.197 1508.8 138.68 1510.56 142.736C1513.1 148.579 1514.77 155.408 1513.83 161.804C1513.71 162.616 1513.56 165.531 1512.44 165.734C1511.2 165.962 1511.78 164.295 1511.85 163.757C1512.27 160.321 1512.65 157.318 1512.14 153.829C1510.16 140.366 1500.5 131.496 1494.21 120.069C1493.87 119.48 1493.14 118.077 1492.63 117.151C1491.83 115.69 1491.02 112.909 1489.94 111.825C1487.89 109.784 1489.77 113.888 1490.17 114.672C1490.67 115.663 1491.23 116.716 1491.74 117.584C1494.1 121.61 1496.74 126.004 1499.17 130.154C1488.63 132.555 1481.21 119.885 1478.38 111.555C1476.05 104.692 1473.27 88.6463 1484.12 88.0591Z" fill="#69A1AC"/>
<path fill-rule="evenodd" clip-rule="evenodd" d="M1546.07 75.3145C1538.34 75.9275 1533.38 81.0254 1531.07 88.1558C1529.83 91.9984 1529.68 95.9459 1528.99 99.8948C1527.95 105.836 1525.71 110.338 1521.34 114.571C1519.99 115.882 1518.99 117.228 1518.28 118.668C1516.87 120.106 1515.64 121.733 1514.74 123.722C1513.59 126.262 1513.26 129.31 1514.59 131.842C1514.95 132.523 1515.84 133.89 1516.77 134.511C1513.31 141.877 1511.41 149.944 1511.62 158.002C1511.75 162.865 1511.99 167.731 1512.26 172.589C1512.34 173.893 1512.76 176.047 1513.4 173.859C1513.98 171.859 1513.25 168.718 1513.18 166.627C1512.86 156.445 1512.57 147.186 1516.77 137.672C1517.2 136.675 1517.67 135.686 1518.16 134.705C1518.18 134.688 1518.21 134.668 1518.24 134.649C1518.26 134.663 1518.27 134.679 1518.29 134.693C1518.32 134.637 1518.37 134.571 1518.41 134.498C1518.55 134.354 1518.68 134.173 1518.79 133.97C1519.16 133.455 1519.58 132.85 1519.59 132.518C1519.59 132.516 1519.58 132.512 1519.58 132.509C1522.18 128.273 1525.15 124.271 1528.19 120.346C1528.16 120.375 1531.48 115.86 1530.97 118.357C1530.72 119.56 1528.28 121.851 1527.3 123.126C1525.12 125.961 1522.56 129.554 1520.43 133.027C1520.15 133.192 1519.74 133.999 1519.45 134.6C1519.29 134.905 1519.14 135.212 1518.99 135.48C1526.52 137.969 1532.38 132.955 1536.38 127.123C1536.39 127.116 1536.39 127.109 1536.39 127.102C1537.61 125.491 1538.86 123.89 1540.41 122.617C1543.01 120.491 1545.79 120.116 1548.85 119.07C1557.2 116.217 1560.75 105.397 1561.88 97.3682C1563.15 88.3105 1556.93 74.4213 1546.07 75.3145Z" fill="#191847"/>
<path fill-rule="evenodd" clip-rule="evenodd" d="M1530.8 49.9492C1522.88 58.2019 1519.04 69.6484 1516.01 80.4092C1512.62 92.428 1510.39 104.632 1510.3 117.128C1510.24 125.338 1510.02 133.599 1510.5 141.799C1510.67 144.712 1510.96 147.629 1511.42 150.51C1511.46 150.747 1512.49 157.18 1513.48 155.681C1514.04 154.828 1512.42 149.008 1512.3 148.038C1511.61 142.578 1511.45 137.077 1511.48 131.577C1511.54 122.522 1511.27 113.513 1512.19 104.49C1512.33 103.143 1512.43 101.729 1512.75 100.411C1513.09 99.0098 1512.66 99.6213 1513.77 99.0667C1514.84 98.5275 1516.17 98.6045 1517.29 97.9281C1521.71 95.2447 1523.98 88.352 1525.74 83.8295C1527.75 78.6577 1528.98 73.1428 1529.96 67.7003C1530.68 63.7015 1531.19 59.727 1531.48 55.6768C1531.57 54.4003 1531.58 53.0654 1531.83 51.8103C1531.9 51.4717 1532.23 50.8728 1532.22 50.5729C1532.2 49.9384 1531.81 49.5652 1531.78 49.0319C1531.45 49.3307 1531.12 49.6366 1530.8 49.9492Z" fill="#191847"/>
<path fill-rule="evenodd" clip-rule="evenodd" d="M1487.57 159.902C1487.57 173.55 1498.63 184.614 1512.28 184.614C1525.93 184.614 1536.99 173.55 1536.99 159.902" fill="#191847"/>
<path fill-rule="evenodd" clip-rule="evenodd" d="M1529.22 138.266C1535.33 137.815 1542.16 142.749 1545.11 147.884C1547.49 152.024 1547.09 157.46 1545.62 161.858C1544.64 164.803 1542.49 169.001 1538.91 169.042C1534.43 169.093 1534.21 163.557 1534.13 160.32C1534.01 156.018 1533.47 152.27 1530.08 149.337C1529.66 148.975 1529.22 148.636 1528.78 148.297C1528.39 147.996 1528 147.696 1527.63 147.379C1527.57 147.328 1527.51 147.277 1527.45 147.227C1526.25 146.219 1524.99 145.161 1524.83 143.5C1524.61 141.093 1525.97 140.66 1528.05 141.107C1528.11 141.121 1528.29 141.19 1528.54 141.284C1529.6 141.685 1531.86 142.542 1531.43 141.518C1531.27 141.132 1530.68 140.826 1529.94 140.597C1528.02 140.388 1525.73 140.146 1525.07 140.291C1517.96 141.85 1515.2 151.695 1514.46 157.95C1514.38 158.625 1514.32 159.302 1514.26 159.981H1512.96C1513.05 158.343 1513.17 156.707 1513.44 155.087C1514.49 148.891 1517.76 139.791 1524.95 138.786C1525.21 138.748 1526.19 138.742 1527.37 138.811C1527.93 138.498 1528.56 138.309 1529.22 138.266Z" fill="white"/>
</g>
<path fill-rule="evenodd" clip-rule="evenodd" d="M1441.35 71.6788C1438.46 73.4258 1435.61 74.2699 1434.28 73.9253C1430.94 73.0612 1430.63 60.7981 1433.22 55.9636C1435.8 51.1291 1449.11 49.022 1449.78 58.6006C1450.01 61.9251 1448.62 64.892 1446.56 67.3129L1450.25 84.5496H1439.53L1441.35 71.6788Z" fill="#B28B67"/>
<path fill-rule="evenodd" clip-rule="evenodd" d="M1437.45 50.6982C1438.92 50.2506 1441.04 50.0988 1441.94 50.2015C1441.43 48.9798 1441.23 47.6188 1441.39 46.2935C1441.55 45.0058 1442.12 43.9093 1442.66 42.7603C1442.9 42.2308 1443.18 41.704 1443.59 41.299C1444.01 40.8863 1444.55 40.6139 1445.11 40.4839C1445.68 40.3509 1446.28 40.3619 1446.85 40.4827C1447.1 40.5361 1447.33 40.6522 1447.58 40.7168C1447.83 40.783 1447.96 40.6233 1448.14 40.4627C1448.59 40.076 1449.24 39.885 1449.8 39.8167C1450.44 39.74 1451.09 39.8356 1451.7 40.0439C1452.28 40.2467 1452.85 40.576 1453.27 41.0557C1453.46 41.2692 1453.63 41.5122 1453.74 41.7806C1453.79 41.8907 1453.8 41.9559 1453.91 41.9963C1454.01 42.0336 1454.13 42.0347 1454.23 42.0702C1455.24 42.4137 1456.11 43.1973 1456.58 44.2034C1456.85 44.7904 1456.98 45.8238 1456.95 46.9822C1456.91 48.1405 1455.87 51.1629 1454.89 52.2653C1454.02 53.2493 1452.74 53.8986 1451.5 54.1829C1452.32 55.1226 1452.87 56.2969 1453.27 57.4912C1453.71 58.7885 1453.99 60.1364 1454.09 61.5098C1454.18 62.8148 1454.19 64.1947 1453.88 65.4718C1453.6 66.666 1452.99 67.6457 1451.97 68.2672C1451.5 68.552 1451 68.7658 1450.49 68.9613C1450 69.154 1449.5 69.3413 1448.97 69.4494C1447.99 69.6539 1446.85 69.6188 1446.09 68.8312C1445.81 68.5473 1445.51 68.1905 1445.31 67.8437C1445.24 67.7189 1445.2 67.6373 1445.28 67.5154C1445.39 67.3694 1445.56 67.2575 1445.69 67.1433C1446.46 66.492 1446.93 65.6225 1447.05 64.5892C1447.18 63.5408 1446.89 62.1876 1445.88 61.73C1444.62 61.1652 1443.24 61.8135 1442.12 62.4179C1441.65 60.7404 1440.67 59.23 1439.15 58.4605C1437.46 57.6093 1435.52 57.5097 1433.78 56.7793C1433.33 56.5889 1432.87 56.3729 1432.54 55.9851C1432.4 55.823 1432.24 55.6128 1432.18 55.3984C1432.11 55.1168 1432.29 54.8808 1432.43 54.6612C1433.17 53.4973 1435.99 51.1458 1437.45 50.6982Z" fill="#191847"/>
<path fill-rule="evenodd" clip-rule="evenodd" d="M1401.03 155.122C1401.86 164.227 1401.03 183.797 1400.58 189.442C1400.3 192.99 1395.47 192.061 1395.02 189.222C1394.95 188.741 1394.64 187.051 1394.17 184.529C1391.9 172.164 1385.94 139.803 1385.93 131.934C1385.93 128.326 1393.94 125.441 1397.15 129.799C1399.79 127.943 1403.53 127.446 1405.84 131.194C1407.59 134.032 1411.74 142.087 1416.16 151.494C1420.04 159.735 1426.1 179.74 1426.1 179.74L1420.96 182.095C1420.96 182.095 1408.25 161.623 1400.25 147.269C1400.51 149.739 1400.78 152.384 1401.03 155.122Z" fill="#B28B67"/>
<path fill-rule="evenodd" clip-rule="evenodd" d="M1425.73 172.334L1408.08 130.422C1403.85 123.604 1391.99 131.809 1393.43 135.764C1396.7 144.741 1413.36 173.806 1414.33 176.48L1425.73 172.334Z" fill="#191847"/>
<path fill-rule="evenodd" clip-rule="evenodd" d="M1385.49 135.207C1385.49 147.086 1390.68 175.011 1390.69 177.627L1403.27 177.201C1403.27 177.201 1399.97 140.783 1400.49 140.536C1401.27 140.166 1432.27 144.836 1441.57 145.189C1454.98 145.697 1460.52 137.454 1460.97 121.812L1435 121.812C1435 121.812 1401.69 125.797 1391.21 127.355C1386.73 128.022 1385.49 131.934 1385.49 135.207Z" fill="#191847"/>
<path fill-rule="evenodd" clip-rule="evenodd" d="M1424.49 178.947C1425.47 178.301 1426.83 178.435 1427.43 179.44C1427.8 180.051 1428.13 180.694 1428.25 181.155C1428.54 182.33 1428.71 184.682 1428.71 184.682C1427.35 185.021 1404.26 190.789 1404.26 190.789C1404.26 190.789 1402.53 187.87 1404.52 187.106C1406.51 186.341 1407.81 185.799 1407.81 185.799L1417.46 178.237C1417.91 177.889 1418.55 177.977 1418.89 178.431L1419.72 179.565C1419.72 179.565 1421.84 179.978 1423.03 179.682C1423.46 179.575 1423.99 179.281 1424.49 178.947Z" fill="#E4E4E4"/>
<path fill-rule="evenodd" clip-rule="evenodd" d="M1398.9 182.7C1400.01 182.311 1401.29 182.769 1401.63 183.89C1401.84 184.572 1402.01 185.277 1402.01 185.753C1402.01 186.963 1401.61 189.286 1401.61 189.286C1400.21 189.286 1376.42 189.286 1376.42 189.286C1376.42 189.286 1375.44 186.033 1377.55 185.774C1379.67 185.514 1381.07 185.305 1381.07 185.305L1392.26 180.307C1392.77 180.077 1393.37 180.318 1393.59 180.84L1394.12 182.142C1394.12 182.142 1396.08 183.058 1397.31 183.058C1397.75 183.058 1398.33 182.901 1398.9 182.7Z" fill="#E4E4E4"/>
<rect width="23.6733" height="3.13314" rx="1.56657" transform="matrix(-1 0 0 1 1401.57 189.286)" fill="#2F3676"/>
<path d="M1466.78 134.385C1466.78 128.862 1462.3 124.385 1456.78 124.385H1420.05C1414.53 124.385 1410.05 128.862 1410.05 134.385V150.793H1462.78C1464.99 150.793 1466.78 149.002 1466.78 146.793V134.385Z" fill="#2F3676"/>
<path fill-rule="evenodd" clip-rule="evenodd" d="M1414.52 124.385V124.385C1411.77 124.385 1409.42 126.379 1408.98 129.095L1399.33 187.943H1404.11" fill="#2F3676"/>
<path fill-rule="evenodd" clip-rule="evenodd" d="M1401.57 196.895C1397.13 196.895 1393.53 193.288 1393.53 188.839C1393.53 184.389 1397.13 180.782 1401.57 180.782C1406.01 180.782 1409.61 184.389 1409.61 188.839C1409.61 193.288 1406.01 196.895 1401.57 196.895Z" fill="#191847"/>
<path fill-rule="evenodd" clip-rule="evenodd" d="M1427.03 161.983C1427.03 180.77 1442.23 196 1460.97 196C1479.72 196 1494.92 180.77 1494.92 161.983C1494.92 143.196 1479.72 127.966 1460.97 127.966C1442.23 127.966 1427.03 143.196 1427.03 161.983ZM1433.28 161.983C1433.28 177.309 1445.68 189.734 1460.97 189.734C1476.27 189.734 1488.67 177.309 1488.67 161.983C1488.67 146.657 1476.27 134.232 1460.97 134.232C1445.68 134.232 1433.28 146.657 1433.28 161.983Z" fill="#191847"/>
<rect width="3.57334" height="59.0821" transform="matrix(-1 0 0 1 1462.76 132.442)" fill="#191847"/>
<rect width="3.57704" height="59.0211" rx="1.78852" transform="matrix(-0.706375 0.707838 0.706375 0.707838 1441.39 139.828)" fill="#191847"/>
<rect width="3.58074" height="58.96" rx="1.79037" transform="matrix(0 1 1 0 1431.49 160.193)" fill="#191847"/>
<rect width="3.57704" height="59.0211" rx="1.78852" transform="matrix(0.706375 0.707838 0.706375 -0.707838 1438.86 181.606)" fill="#191847"/>
<path fill-rule="evenodd" clip-rule="evenodd" d="M1398.73 70.6573L1415.66 75.7502L1411.33 82.9662L1398.17 75.2031C1392.03 74.8364 1389.12 74.2291 1389.46 73.3812C1389.75 72.6662 1390.42 72.5444 1391.05 72.4322C1391.54 72.3448 1391.99 72.2632 1392.2 71.9116C1392.68 71.1087 1391 69.0186 1389.31 67.1037C1387.63 65.1888 1388.97 65.0996 1389.79 65.2532C1392.59 66.3922 1395.57 68.1936 1398.73 70.6573ZM1402.9 116.146L1417.15 105.662L1420.3 113.464L1406.19 119.326C1402.2 124.023 1399.97 125.981 1399.5 125.201C1399.1 124.542 1399.41 123.926 1399.7 123.358C1399.92 122.916 1400.13 122.503 1399.98 122.123C1399.63 121.255 1396.95 121.346 1394.41 121.542C1391.87 121.738 1392.61 120.605 1393.22 120.046C1395.81 118.491 1399.04 117.191 1402.9 116.146Z" fill="#B28B67"/>
<path fill-rule="evenodd" clip-rule="evenodd" d="M1439.28 77.4269C1431.52 91.9242 1420.3 103.037 1404.04 114.59L1410.2 121.549C1428.36 114.786 1437.94 110.705 1442.65 97.0081C1443.83 93.5704 1444.66 82.6118 1445.37 76.8459L1439.28 77.4269Z" fill="#1E2126"/>
<path fill-rule="evenodd" clip-rule="evenodd" d="M1460.97 125.728H1426.58C1426.58 125.728 1438.27 90.0138 1438.52 76.7039C1438.53 76.2516 1439.36 75.4545 1439.73 75.5588C1443.78 76.7039 1448.39 74.7025 1448.39 74.7025C1456.54 87.8431 1459.36 104.022 1460.97 125.728Z" fill="#F2F2F2"/>
<path fill-rule="evenodd" clip-rule="evenodd" d="M1439.76 94.7505C1434.39 117.84 1434.64 136.741 1446.5 136.741H1464.84C1467.75 117.127 1460.09 89.9312 1453 76.2139C1452.73 75.69 1452.15 74.7025 1450.79 74.7025H1445.46C1445.46 74.7096 1445.46 74.7167 1445.46 74.7237C1443.85 74.7369 1442.09 74.7956 1440.17 74.8593C1430.33 75.1868 1416.6 75.6434 1401.15 70.6742L1399.33 79.7932C1413.28 88.7785 1427.39 95.7389 1439.76 94.7505Z" fill="#191847"/>
<path fill-rule="evenodd" clip-rule="evenodd" d="M1164.72 29.9014C1159.71 29.9014 1155.64 33.9644 1155.64 38.9764V46.6667C1155.64 51.2128 1158.99 54.9782 1163.35 55.6389C1163.35 55.676 1163.35 55.7133 1163.35 55.7508H1175.05C1177.04 53.8053 1174.79 40.6098 1173.39 36.2365C1173.2 35.634 1173.01 35.1965 1172.83 34.8948C1171.33 31.9328 1168.26 29.9014 1164.72 29.9014Z" fill="#191847"/>
<path fill-rule="evenodd" clip-rule="evenodd" d="M1164.89 49.3804C1167.51 50.9563 1170.07 51.7177 1171.28 51.4069C1174.3 50.6275 1174.57 39.5654 1172.24 35.2044C1169.9 30.8433 1157.89 28.9425 1157.28 37.5831C1157.07 40.582 1158.33 43.2583 1160.19 45.4421L1156.85 60.9907H1166.53L1164.89 49.3804Z" fill="#B28B67"/>
<path fill-rule="evenodd" clip-rule="evenodd" d="M1156 37.6335C1156.28 37.3553 1156.55 37.0862 1156.82 36.8452L1156.81 36.5314C1156.81 36.5314 1159.85 30.3052 1164.52 30.3052C1169.18 30.3052 1170.66 32.4768 1171.91 34.3229L1171.92 34.3278C1171.26 36.5817 1169.28 37.4935 1167.05 38.5248C1166.08 38.9687 1165.07 39.4348 1164.1 40.0395C1163.72 39.7292 1163.23 39.5433 1162.7 39.5433C1161.48 39.5433 1160.48 40.5375 1160.48 41.7639C1160.48 42.9904 1161.48 43.9846 1162.7 43.9846C1162.74 43.9846 1162.77 43.9838 1162.8 43.9823C1163.25 48.7782 1163.07 54.2549 1161.74 55.5549H1150.04C1149.71 49.715 1151.22 48.049 1152.76 46.3467C1154.21 44.7449 1155.69 43.1109 1155.69 37.9373C1155.79 37.8355 1155.9 37.7339 1156 37.6335Z" fill="#191847"/>
<path fill-rule="evenodd" clip-rule="evenodd" d="M1141.29 134.106C1141.29 134.106 1155.8 138.17 1166.33 138.17C1176.86 138.17 1185.89 131.912 1185.89 131.912C1185.89 131.912 1171.69 127.741 1162.5 127.741C1153.31 127.741 1141.29 134.106 1141.29 134.106Z" fill="#1F28CF"/>
<path fill-rule="evenodd" clip-rule="evenodd" d="M1174.71 142.075C1174.61 141.934 1174.54 141.781 1174.47 141.616C1173.18 138.192 1152.46 101.255 1150.4 94.5023H1173.72C1175.29 99.6367 1182.35 131.858 1183.35 138.286C1186.48 148.427 1192.94 181.268 1193.77 183.543C1194.63 185.936 1189.75 188.429 1188.45 185.487C1186.39 180.805 1181.46 167.851 1179.26 159.941C1177.2 152.525 1175.53 145.854 1174.71 142.075Z" fill="#997659"/>
<path fill-rule="evenodd" clip-rule="evenodd" d="M1155.63 146.584C1146.16 148.98 1111.51 153.312 1109.13 153.992C1106.69 154.691 1104.55 149.645 1107.57 148.552C1112.38 146.812 1125.63 142.794 1133.67 141.154C1140.13 139.835 1146.03 138.759 1149.99 138.128C1149.65 126.994 1148.12 100.273 1149.12 94.5023H1169.76C1168.8 100.036 1160.65 140.417 1159.13 144.458C1158.65 145.901 1157.22 146.539 1155.63 146.584V146.584Z" fill="#B28B67"/>
<path fill-rule="evenodd" clip-rule="evenodd" d="M1108.17 149.503C1108.34 148.344 1107.67 147.158 1106.51 147.032C1105.94 146.97 1105.38 146.945 1105.01 147.011C1103.93 147.201 1101.93 147.923 1101.93 147.923C1102.15 149.17 1105.88 170.349 1105.88 170.349C1105.88 170.349 1108.93 170.714 1108.82 168.79C1108.72 166.866 1108.69 165.587 1108.69 165.587L1111.35 154.939C1111.48 154.392 1111.14 153.841 1110.59 153.72L1109.45 153.469C1109.45 153.469 1108.33 151.868 1108.14 150.778C1108.08 150.436 1108.11 149.975 1108.17 149.503Z" fill="#E4E4E4"/>
<path fill-rule="evenodd" clip-rule="evenodd" d="M1189.3 185.126C1188.19 184.762 1186.9 185.21 1186.58 186.335C1186.42 186.885 1186.3 187.431 1186.3 187.813C1186.3 188.905 1186.66 191 1186.66 191C1187.93 191 1209.41 191 1209.41 191C1209.41 191 1210.3 188.065 1208.39 187.831C1206.47 187.597 1205.21 187.409 1205.21 187.409L1195.2 182.941C1194.68 182.711 1194.08 182.952 1193.87 183.473L1193.42 184.556C1193.42 184.556 1191.65 185.382 1190.55 185.382C1190.2 185.382 1189.75 185.274 1189.3 185.126Z" fill="#E4E4E4"/>
<path fill-rule="evenodd" clip-rule="evenodd" d="M1149.19 94.5023C1149.19 94.5023 1162.83 90.5956 1175 94.5023C1177.83 107.397 1184.69 112.515 1185.89 132.285C1172.18 139.106 1155.24 127.421 1141.12 134.073C1137.09 124.768 1142.74 102.361 1149.19 94.5023Z" fill="#2B44FF"/>
<path fill-rule="evenodd" clip-rule="evenodd" d="M1204.24 76.3032L1188.31 78.4777L1191.17 85.6198L1204.09 80.4916C1209.66 81.0416 1212.35 80.9092 1212.17 80.0943C1212.02 79.4072 1211.43 79.1998 1210.88 79.0087C1210.45 78.8599 1210.06 78.721 1209.92 78.373C1209.6 77.5782 1211.41 75.931 1213.2 74.4419C1214.98 72.9528 1213.78 72.6788 1213.03 72.7008C1210.35 73.3286 1207.42 74.5294 1204.24 76.3032ZM1126.76 115.461C1127.95 113.06 1138.29 82.1675 1138.29 82.1675L1147.12 82.2007C1147.12 82.2007 1132.59 114.925 1131.97 116.469C1131.16 118.474 1132.54 121.387 1133.47 123.363C1133.61 123.668 1133.74 123.952 1133.86 124.206C1132.57 124.784 1131.94 124.085 1131.29 123.347C1130.55 122.515 1129.77 121.633 1127.93 122.491C1127.22 122.822 1126.55 123.213 1125.89 123.596C1123.62 124.917 1121.53 126.131 1118.69 124.378C1118.24 124.1 1117.75 123.054 1118.94 122.236C1121.91 120.199 1126.19 116.634 1126.76 115.461Z" fill="#997659"/>
<path fill-rule="evenodd" clip-rule="evenodd" d="M1162.48 54.1268L1169.39 54.5879C1171.1 70.0119 1180.37 79.7543 1201.14 76.4561L1203.9 96.3187C1184.49 98.8302 1167.47 91.0502 1163.98 69.9857C1163.07 64.5328 1162.36 58.8579 1162.48 54.1268Z" fill="#AFB9C5"/>
<path fill-rule="evenodd" clip-rule="evenodd" d="M1127.98 111.46C1132.78 85.8879 1142.91 66.1038 1158.38 52.108H1159.04H1159.06L1159.07 52.1145L1169.55 54.5165C1169.55 67.1153 1172.35 76.529 1175.04 85.5795C1176.2 89.4879 1177.34 93.3285 1178.23 97.3287H1149.93C1149.54 101.912 1149.29 106.622 1149.16 111.46H1127.98Z" fill="#C5CFD6"/>
<path fill-rule="evenodd" clip-rule="evenodd" d="M1149.93 97.3287C1150.75 87.9982 1152.19 79.196 1154.59 70.9224C1154.06 79.7703 1153.92 90.7467 1155.68 97.3287H1149.93Z" fill="black" fill-opacity="0.1"/>
</g>
<defs>
<clipPath id="clip0_308_223">
<rect width="1584" height="396" fill="white"/>
</clipPath>
</defs>
</svg>
